# xmcd
#
# Track frame offsets:
#	150
#	22725
#	43705
#	64585
#	83085
#	105528
#	127545
#	147253
#	167415
#	189513
#	207620
#	225613
#	245280
#	264725
#
# Disc length: 3798 seconds
#
# Revision: 1
# Processed by: cddbd v1.5.1PL0 Copyright (c) Steve Scherf et al.
# Submitted via: CDex 1.50Beta5
#
DISCID=af0ed40e
DTITLE=都はるみ - 有線ヒット全曲集
DYEAR=1992
DGENRE=World
TTITLE0=都はるみ/つくしんぼ
TTITLE1=大川栄策/絆川
TTITLE2=石川さゆり/春夏秋秋
TTITLE3=冠二郎/ぬくもり
TTITLE4=多岐川舞子/こころ舟
TTITLE5=細川たかし/佐渡の恋唄
TTITLE6=わかばちどり/酔ごころ
TTITLE7=目黒譲二/夜桜
TTITLE8=若山かずさ/恋宿
TTITLE9=田川寿美/女…ひとり旅
TTITLE10=中川明/男と女の破片
TTITLE11=松原のぶえ/愛冠岬
TTITLE12=多岐川舞子/流恋草
TTITLE13=八代亜紀/雪のれん
EXTD=
EXTT0=
EXTT1=
EXTT2=
EXTT3=
EXTT4=
EXTT5=
EXTT6=
EXTT7=
EXTT8=
EXTT9=
EXTT10=
EXTT11=
EXTT12=
EXTT13=
PLAYORDER=
